<svg width="144" height="56" viewBox="0 0 144 56" fill="none" xmlns="http://www.w3.org/2000/svg">
<g clip-path="url(#clip0_711_795)">
<path d="M83.2391 9.49667C81.9257 9.07365 80.4852 8.8692 78.7128 8.86214C75.0691 8.85509 71.4255 8.85509 67.3793 8.86214H63.9757V12.7962H64.5477C68.495 12.7962 72.4423 12.8032 76.3896 12.8244H76.5661C78.0207 12.8314 79.5248 12.8385 80.9371 13.2333C82.7448 13.7409 83.4156 14.6151 83.4227 16.4552C83.4227 18.6902 83.4227 20.9251 83.4227 23.16C83.4227 24.8944 82.7589 25.7545 81.0783 26.2198C79.7296 26.5935 78.3314 26.6358 77.011 26.6499C74.5748 26.6781 72.0963 26.671 69.7025 26.671H66.2848C64.3359 26.671 64.0887 26.9107 64.0887 28.8707V31.7965C64.0887 34.6025 64.0887 37.5072 64.0746 40.3978C64.0746 40.7503 64.1099 41.1875 64.4347 41.4906C64.7595 41.7867 65.1832 41.7867 65.4798 41.7585C66.0306 41.7092 66.539 41.7092 66.998 41.7585C67.111 41.7726 67.224 41.7797 67.344 41.7797C67.7465 41.7797 68.0501 41.681 68.2761 41.4695C68.6503 41.124 68.6927 40.5952 68.6927 40.1722C68.6645 38.2475 68.6574 36.6753 68.6645 34.7435V34.5673C68.6645 33.3053 68.6645 32.0363 68.6574 30.7743C68.6574 30.6826 68.6574 30.6262 68.6645 30.591C68.7068 30.591 68.7704 30.5839 68.8692 30.5769C70.5075 30.591 72.1457 30.591 73.7839 30.591H73.9746C75.3586 30.591 76.7426 30.591 78.1267 30.591C79.313 30.6121 80.6052 30.4993 81.968 30.2596C85.5058 29.6392 87.9278 27.0024 87.9984 23.6888C88.0479 21.334 88.0479 18.81 87.9984 15.9829C87.9419 12.8244 86.2048 10.4625 83.225 9.49667" fill="#C3292D"/>
<path d="M35.9422 26.5159C35.9281 26.4454 35.921 26.3679 35.921 26.2621C35.9563 22.4056 35.9563 18.9228 35.921 15.6163C35.8999 13.8044 35.2431 12.2604 33.9792 11.0407C32.5316 9.65177 30.625 8.91854 28.3018 8.86214C26.014 8.80574 23.7261 8.80574 21.177 8.81279C20.2166 8.81279 19.2563 8.81279 18.2959 8.81279C17.0814 8.81279 16.0645 8.82689 15.0124 9.01725C11.6159 9.62357 10.0412 11.1041 9.75171 13.9736V30.457H11.1499C11.7218 30.4641 12.3009 30.4641 12.8799 30.4711C13.2683 30.4711 13.6637 30.4288 13.9673 30.1327C14.271 29.8295 14.3133 29.4065 14.3133 29.0258C14.2922 25.4584 14.2922 21.8698 14.2992 18.3941V15.0452C14.2992 13.6916 14.7723 13.1205 16.0504 12.9372C19.7859 12.4014 23.7049 12.4225 28.0335 12.9865C30.4414 13.3038 31.4088 14.4318 31.3735 16.8924C31.3453 19.0427 31.3453 21.2212 31.3523 23.3292C31.3523 25.1623 31.3594 27.0517 31.3453 28.913C31.3453 29.2867 31.3806 29.7661 31.7125 30.0974C32.0373 30.4218 32.4963 30.4711 32.9341 30.4711H35.9563V26.6146L35.9422 26.5089V26.5159Z" fill="#C3292D"/>
<path d="M141.975 26.6499H141.855C141.855 26.6499 141.827 26.6499 141.813 26.6499H141.643C140.379 26.6428 139.108 26.6499 137.816 26.6499C134.836 26.664 131.75 26.6781 128.735 26.5018C127.69 26.4384 126.476 26.2974 125.381 25.6628C124.597 25.2116 124.167 24.6124 124.068 23.8439C123.771 21.5596 123.856 19.1978 123.941 16.9206L123.969 16.1098C124.025 14.3825 125.254 13.6492 126.271 13.332C127.803 12.8596 129.427 12.8103 130.96 12.7962C133.262 12.775 135.599 12.775 137.866 12.7821H140.944C143.126 12.7821 143.381 12.5424 143.437 10.4202V10.3004C143.451 9.94788 143.423 9.50371 143.105 9.18645C142.787 8.86214 142.35 8.83394 141.926 8.83394C137.809 8.86214 133.502 8.86214 128.749 8.83394C127.627 8.82689 126.454 8.93969 125.155 9.18645C121.674 9.84917 119.393 12.5071 119.351 15.9476C119.323 18.1261 119.294 20.6572 119.358 23.1671C119.421 25.5712 120.128 27.2632 121.575 28.49C123.001 29.7026 124.83 30.3512 126.991 30.4147C128.756 30.4711 130.571 30.457 132.167 30.4429C132.774 30.4429 133.382 30.4359 133.982 30.4359L141.262 30.457C142.18 30.457 142.688 30.457 143.049 30.0904C143.416 29.7238 143.409 29.2162 143.409 28.2926C143.409 26.9742 143.176 26.6781 141.975 26.6499Z" fill="#C3292D"/>
<path d="M141.926 17.3365C138.699 17.3577 135.408 17.3577 132.238 17.3506H128.679C127.471 17.3506 126.864 17.3506 126.44 17.7736C126.017 18.1966 126.024 18.7959 126.024 20.0015C126.024 20.3047 126.059 20.6854 126.349 20.9744C126.631 21.2494 127.019 21.2847 127.358 21.2847C129.166 21.2635 130.995 21.2706 132.774 21.2706H140.937C143.119 21.2706 143.38 21.0308 143.437 18.9158V18.7959C143.451 18.4434 143.416 17.9992 143.105 17.682C142.787 17.3577 142.335 17.3295 141.933 17.3295" fill="#C3292D"/>
<path d="M62.3163 22.8428C62.281 22.4902 62.2316 22.1377 62.1751 21.7852C61.935 20.2553 61.017 19.0709 59.4494 18.2672C58.1289 17.5903 56.639 17.259 54.6124 17.2096C53.4402 17.1814 52.2398 17.1814 51.0888 17.1744H50.4886C49.3729 17.1744 48.2148 17.1744 47.0779 17.1532C45.7575 17.125 44.6418 16.9276 43.6814 16.5539C42.7635 16.1944 42.3398 15.6727 42.3539 14.9183C42.368 14.2485 42.7776 13.8114 43.7591 13.4166C44.9807 12.9301 46.2941 12.8244 47.89 12.8173C52.5081 12.8032 57.1262 12.7891 61.7373 12.7891H62.3093V8.85509L61.7232 8.86919C59.9508 8.91149 58.023 8.89034 55.9752 8.86919H55.9258C52.5293 8.83394 49.0269 8.79164 45.4185 9.01725C43.6956 9.123 42.2339 9.46846 40.9487 10.0677C38.8939 11.0266 37.8135 12.6058 37.7358 14.7632C37.6581 16.9629 38.6326 18.6408 40.6451 19.7336C42.6152 20.8052 44.783 21.0167 46.8308 21.0872C48.6597 21.1507 50.5521 21.1295 52.2186 21.1154L53.8145 21.1013C54.57 21.1013 55.368 21.2071 56.2506 21.4327C57.0627 21.6372 57.4652 21.9685 57.5852 22.5255C57.7759 23.3856 57.7829 24.2528 57.5852 25.0988C57.4793 25.5571 57.1968 25.8532 56.6602 26.0506C55.8834 26.3397 55.0926 26.4877 54.3088 26.4948C52.1621 26.4948 50.0155 26.5018 47.8688 26.5089H47.2262C44.204 26.5089 41.1888 26.5159 38.1665 26.53H37.5946V30.4641H38.1665C42.128 30.457 46.0823 30.457 50.0437 30.457H53.412C54.5559 30.457 55.7422 30.457 56.9215 30.2384C58.821 29.8789 61.123 29.1245 62.0056 26.4948C62.1257 26.1352 62.2104 25.7615 62.274 25.3174L62.3022 25.1341C62.3869 24.4361 62.3869 23.6817 62.3022 22.8287L62.3163 22.8428Z" fill="#C3292D"/>
<path d="M119.993 10.0748L119.979 9.89853V9.87033L119.972 9.77867C119.894 9.13005 119.485 8.80574 118.807 8.81279C117.352 8.84804 115.862 8.82689 114.429 8.81279H114.38C111.802 8.77754 109.133 8.74229 106.499 9.01725C105.115 9.15825 103.329 9.48256 101.803 10.7164C99.7626 12.3661 99.5155 14.7138 99.5084 16.3424C99.4872 19.9169 99.4943 23.1812 99.5155 26.3185C99.5155 26.4172 99.5155 26.5018 99.4872 26.671V30.457H100.899C101.479 30.4641 102.05 30.4711 102.63 30.4711H102.679C102.99 30.4711 103.435 30.4359 103.745 30.1256C104.056 29.8154 104.098 29.3854 104.098 28.9694C104.07 24.7675 104.077 20.5867 104.084 16.5469V15.8137C104.084 14.5235 104.72 13.6493 105.962 13.2051C106.789 12.909 107.692 12.775 108.9 12.768C111.4 12.7539 113.899 12.7539 116.392 12.7468H117.338C118.609 12.7468 119.245 12.7468 119.676 12.2886C120.092 11.8514 120.071 11.2451 119.993 10.0677" fill="#C3292D"/>
<path d="M4.37096 8.85509H2.26668C1.57467 8.85509 1.00977 9.41911 1.00977 10.11V29.2091C1.00977 29.9 1.57467 30.4641 2.26668 30.4641H5.62788V10.11C5.62788 9.41911 5.06297 8.85509 4.37096 8.85509Z" fill="#C3292D"/>
<path d="M94.1559 8.84804H92.0516C91.3596 8.84804 90.7947 9.41206 90.7947 10.103V29.2021C90.7947 29.893 91.3596 30.457 92.0516 30.457H95.4128V10.103C95.4128 9.41206 94.8479 8.84804 94.1559 8.84804Z" fill="#C3292D"/>
<path d="M2.13959 6.75412C2.13959 6.75412 2.20314 6.75412 2.23844 6.75412C2.97282 6.72592 3.70014 6.72592 4.40628 6.75412H4.49807C4.8582 6.75412 5.12653 6.65542 5.33131 6.45801C5.54315 6.24651 5.63495 5.9504 5.62083 5.55558C5.59964 5.03387 5.6067 4.5051 5.61376 4.03978V3.37001V2.72844C5.61376 2.24902 5.6067 1.75551 5.62789 1.26904C5.64201 0.987033 5.62789 0.585169 5.32425 0.28906C5.10535 0.0775527 4.80171 -0.0141003 4.38509 1.80444e-07C3.76369 0.0352513 3.0858 0.0352513 2.23138 1.80444e-07C2.08309 1.80444e-07 1.63823 -0.0282008 1.32047 0.282009C1.00977 0.585169 1.01683 1.02933 1.01683 1.17739C1.03802 2.63679 1.03802 4.11029 1.01683 5.56968C1.00977 5.95745 1.10863 6.25356 1.32047 6.45801C1.51819 6.64837 1.79358 6.74707 2.13959 6.74707" fill="#C3292D"/>
<path d="M95.1445 0.28906C94.9256 0.0775531 94.629 -0.0211502 94.2124 5.14556e-07C93.591 0.0352517 92.906 0.0352517 92.0587 5.14556e-07C91.9104 -0.00704972 91.4655 -0.0282004 91.1478 0.28201C90.8371 0.59222 90.8441 1.03638 90.8441 1.17739C90.8724 2.63679 90.8724 4.11029 90.8441 5.56968C90.8441 5.95745 90.9359 6.24651 91.1478 6.45801C91.3455 6.64837 91.6209 6.74707 91.9669 6.74707C92.0022 6.74707 92.0304 6.74707 92.0658 6.74707C92.8001 6.71887 93.5274 6.71887 94.2336 6.74707H94.3254C94.6855 6.74707 94.9538 6.64837 95.1586 6.45096C95.3705 6.23946 95.4623 5.94335 95.4481 5.54853C95.4269 5.03387 95.434 4.49805 95.4411 4.03273V3.36296V2.72139C95.4411 2.24197 95.434 1.74846 95.4552 1.26199C95.4693 0.979983 95.4552 0.57812 95.1586 0.28201" fill="#C3292D"/>
<path d="M0.00706482 40.7785H61.1159" stroke="#929495" stroke-width="0.65" stroke-miterlimit="10"/>
<path d="M72.414 40.7785H142.929" stroke="#929495" stroke-width="0.65" stroke-miterlimit="10"/>
<path d="M0.00706482 55.7673H142.929" stroke="#929495" stroke-width="0.65" stroke-miterlimit="10"/>
<path d="M0.692011 51.1071C0.233024 50.6489 0 49.9579 0 49.0273V45.0228C0 44.9523 0.021184 44.8959 0.0564907 44.8465C0.0988588 44.8042 0.148288 44.7831 0.21184 44.7831H0.68495C0.755563 44.7831 0.812054 44.8042 0.861483 44.8465C0.903852 44.8888 0.925035 44.9452 0.925035 45.0228V49.0485C0.925035 49.69 1.07332 50.1765 1.37696 50.4867C1.67354 50.804 2.10428 50.9591 2.65506 50.9591C3.20585 50.9591 3.62247 50.7969 3.9261 50.4797C4.22974 50.1624 4.37803 49.683 4.37803 49.0414V45.0157C4.37803 44.9452 4.39921 44.8888 4.43452 44.8395C4.47689 44.7972 4.53338 44.776 4.60399 44.776H5.0771C5.14066 44.776 5.19715 44.7972 5.23951 44.8395C5.28188 44.8818 5.30307 44.9382 5.30307 45.0157V49.0203C5.30307 49.9509 5.0771 50.6418 4.61812 51.1001C4.15913 51.5584 3.50242 51.784 2.65506 51.784C1.8077 51.784 1.151 51.5584 0.68495 51.1001L0.692011 51.1071Z" fill="#929495"/>
<path d="M6.97661 51.6359C6.93424 51.5936 6.92012 51.5513 6.92012 51.4949L6.9413 51.3891L9.39159 45.0016C9.44102 44.8536 9.54694 44.7831 9.70935 44.7831H10.3449C10.5002 44.7831 10.6061 44.8536 10.6626 45.0016L13.1129 51.3891L13.1341 51.4949C13.1341 51.5443 13.1129 51.5936 13.0705 51.6359C13.0282 51.6782 12.9787 51.6923 12.9293 51.6923H12.4633C12.3997 51.6923 12.3432 51.6712 12.3009 51.6359C12.2585 51.6007 12.2302 51.5654 12.2161 51.5231L11.6653 50.099H8.39594L7.85222 51.5231C7.79573 51.6359 7.71805 51.6923 7.60507 51.6923H7.13196C7.08253 51.6923 7.0331 51.6712 6.99073 51.6359H6.97661ZM8.66427 49.2882H11.3758L10.02 45.7419L8.66427 49.2882Z" fill="#929495"/>
<path d="M14.9983 51.6359C14.9559 51.5936 14.9418 51.5372 14.9418 51.4737V45.0298C14.9418 44.9593 14.963 44.9029 14.9983 44.8536C15.0406 44.8113 15.0901 44.7901 15.1536 44.7901H19.2139C19.2845 44.7901 19.341 44.8113 19.3904 44.8536C19.4328 44.8959 19.454 44.9523 19.454 45.0298V45.3823C19.454 45.4458 19.4328 45.5022 19.3904 45.5374C19.3481 45.5797 19.2916 45.5938 19.2139 45.5938H15.8456V47.7935H19.0021C19.0727 47.7935 19.1292 47.8147 19.1786 47.857C19.221 47.8993 19.2421 47.9557 19.2421 48.0332V48.3716C19.2421 48.4351 19.221 48.4915 19.1786 48.5338C19.1362 48.5761 19.0797 48.5973 19.0021 48.5973H15.8456V50.8745H19.2986C19.3692 50.8745 19.4257 50.8956 19.4752 50.9379C19.5175 50.9802 19.5387 51.0366 19.5387 51.1071V51.4596C19.5387 51.5231 19.5175 51.5795 19.4681 51.6218C19.4187 51.6641 19.3692 51.6853 19.2986 51.6853H15.1536C15.0901 51.6853 15.0336 51.6641 14.9983 51.6218V51.6359Z" fill="#929495"/>
<path d="M34.6076 51.1212C34.1416 50.67 33.8944 49.9932 33.8662 49.0837C33.8662 48.8863 33.8591 48.6043 33.8591 48.2447C33.8591 47.8852 33.8591 47.6032 33.8662 47.4128C33.8944 46.5174 34.1486 45.8406 34.6288 45.3823C35.116 44.9241 35.7657 44.6914 36.5919 44.6914C37.418 44.6914 38.0677 44.9241 38.5479 45.3823C39.028 45.8406 39.2822 46.5174 39.3105 47.4128C39.3246 47.7935 39.3317 48.0685 39.3317 48.2447C39.3317 48.421 39.3317 48.6889 39.3105 49.0837C39.2822 49.9932 39.0422 50.67 38.5761 51.1212C38.1101 51.5725 37.4534 51.7981 36.5919 51.7981C35.7304 51.7981 35.0737 51.5725 34.6076 51.1212ZM37.8629 50.5008C38.1807 50.1836 38.3501 49.69 38.3784 49.0344C38.3925 48.6396 38.3996 48.3787 38.3996 48.2447C38.3996 48.0967 38.3996 47.8358 38.3784 47.4551C38.3501 46.7994 38.1807 46.3059 37.8629 45.9816C37.5451 45.6573 37.1215 45.4951 36.5989 45.4951C36.0764 45.4951 35.6456 45.6573 35.3279 45.9816C35.0101 46.3059 34.8407 46.7924 34.8195 47.4551C34.8195 47.6455 34.8124 47.9063 34.8124 48.2447C34.8124 48.5832 34.8124 48.837 34.8195 49.0344C34.8407 49.69 35.0101 50.1836 35.3208 50.5008C35.6386 50.8181 36.0623 50.9802 36.5989 50.9802C37.1356 50.9802 37.5451 50.8181 37.8629 50.5008Z" fill="#929495"/>
<path d="M41.5984 51.6359C41.556 51.5936 41.5348 51.5372 41.5348 51.4737V45.0298C41.5348 44.9593 41.556 44.9029 41.5913 44.8536C41.6337 44.8113 41.6831 44.7901 41.7608 44.7901H42.2268C42.3469 44.7901 42.4316 44.8395 42.474 44.9382L44.5782 48.978L46.7037 44.9382C46.7602 44.8395 46.8379 44.7901 46.9438 44.7901H47.4098C47.4805 44.7901 47.5369 44.8113 47.5793 44.8536C47.6217 44.8959 47.6358 44.9523 47.6358 45.0298V51.4737C47.6358 51.5372 47.6146 51.5936 47.5722 51.6359C47.5299 51.6782 47.4734 51.6994 47.4098 51.6994H46.9579C46.8944 51.6994 46.8379 51.6782 46.8026 51.6359C46.7602 51.5936 46.7461 51.5372 46.7461 51.4737V46.5668L45.0584 49.831C44.9949 49.972 44.8889 50.0355 44.7407 50.0355H44.4441C44.3028 50.0355 44.1969 49.965 44.1263 49.831L42.4457 46.5668V51.4737C42.4457 51.5372 42.4245 51.5936 42.3822 51.6359C42.3398 51.6782 42.2833 51.6994 42.2198 51.6994H41.7749C41.7113 51.6994 41.6548 51.6782 41.6125 51.6359H41.5984Z" fill="#929495"/>
<path d="M49.5 51.6359C49.4576 51.5936 49.4435 51.5513 49.4435 51.4949L49.4647 51.3891L51.915 45.0016C51.9644 44.8536 52.0703 44.7831 52.2327 44.7831H52.8683C53.0236 44.7831 53.1295 44.8536 53.186 45.0016L55.6363 51.3891L55.6575 51.4949C55.6575 51.5443 55.6363 51.5936 55.5939 51.6359C55.5516 51.6782 55.5021 51.6923 55.4527 51.6923H54.9867C54.9231 51.6923 54.8666 51.6712 54.8243 51.6359C54.7819 51.6007 54.7536 51.5654 54.7395 51.5231L54.1887 50.099H50.9193L50.3756 51.5231C50.3191 51.6359 50.2414 51.6923 50.1285 51.6923H49.6554C49.6059 51.6923 49.5565 51.6712 49.5141 51.6359H49.5ZM51.1877 49.2882H53.8992L52.5434 45.7419L51.1877 49.2882Z" fill="#929495"/>
<path d="M57.5217 51.6359C57.4793 51.5936 57.4652 51.5372 57.4652 51.4737V45.0298C57.4652 44.9593 57.4864 44.9029 57.5217 44.8536C57.564 44.8113 57.6135 44.7901 57.677 44.7901H58.1148C58.1784 44.7901 58.2278 44.8042 58.2631 44.8324C58.2984 44.8606 58.3267 44.8888 58.362 44.9311L61.6737 50.0214V45.0298C61.6737 44.9593 61.6949 44.9029 61.7373 44.8536C61.7797 44.8113 61.8362 44.7901 61.8997 44.7901H62.3446C62.4152 44.7901 62.4717 44.8113 62.514 44.8536C62.5564 44.8959 62.5776 44.9523 62.5776 45.0298V51.4667C62.5776 51.5301 62.5564 51.5865 62.514 51.6359C62.4717 51.6853 62.4152 51.7064 62.3516 51.7064H61.9068C61.7938 51.7064 61.7161 51.6571 61.6667 51.5654L58.3549 46.5245V51.4808C58.3549 51.5442 58.3337 51.6007 58.2914 51.643C58.249 51.6853 58.1925 51.7064 58.1289 51.7064H57.677C57.6135 51.7064 57.557 51.6853 57.5217 51.643V51.6359Z" fill="#929495"/>
<path d="M82.0033 52.2775C81.9468 52.2352 81.8974 52.1788 81.855 52.1153L81.4525 51.5513C81.0995 51.7135 80.6899 51.7981 80.2098 51.7981C79.3553 51.7981 78.6916 51.5725 78.2255 51.1212C77.7595 50.67 77.5123 49.9932 77.4841 49.0837C77.4841 48.8863 77.477 48.6043 77.477 48.2447C77.477 47.8852 77.477 47.6032 77.4841 47.4128C77.5123 46.5174 77.7665 45.8406 78.2467 45.3823C78.7339 44.9241 79.3836 44.6914 80.2098 44.6914C81.0359 44.6914 81.6856 44.9241 82.1657 45.3823C82.6459 45.8406 82.9001 46.5174 82.9284 47.4128C82.9425 47.7935 82.9496 48.0685 82.9496 48.2447C82.9496 48.421 82.9496 48.6889 82.9284 49.0837C82.9001 49.9932 82.66 50.663 82.2081 51.1071L82.8719 52.0378C82.8931 52.0801 82.9001 52.1153 82.9001 52.1435C82.9001 52.1929 82.8789 52.2422 82.8436 52.2845C82.8013 52.3268 82.7589 52.3409 82.7024 52.3409H82.2011C82.1304 52.3409 82.0669 52.3198 82.0104 52.2775H82.0033ZM81.4667 50.5008C81.7844 50.1836 81.9539 49.69 81.968 49.0344C81.9822 48.6396 81.9892 48.3787 81.9892 48.2447C81.9892 48.0967 81.9892 47.8358 81.968 47.4551C81.9468 46.7994 81.7774 46.3059 81.4667 45.9816C81.1489 45.6573 80.7252 45.4951 80.2027 45.4951C79.6802 45.4951 79.2494 45.6573 78.9317 45.9816C78.6139 46.3059 78.4444 46.7924 78.4232 47.4551C78.4232 47.6455 78.4162 47.9063 78.4162 48.2447C78.4162 48.5832 78.4162 48.837 78.4232 49.0344C78.4444 49.69 78.6139 50.1836 78.9246 50.5008C79.2424 50.8181 79.666 50.9802 80.2027 50.9802C80.7394 50.9802 81.1489 50.8181 81.4667 50.5008Z" fill="#929495"/>
<path d="M84.4042 51.6359C84.3618 51.5936 84.3477 51.5513 84.3477 51.4949L84.3689 51.3891L86.8192 45.0016C86.8686 44.8536 86.9745 44.7831 87.137 44.7831H87.7725C87.9278 44.7831 88.0337 44.8536 88.0902 45.0016L90.5405 51.3891L90.5617 51.4949C90.5617 51.5443 90.5405 51.5936 90.4981 51.6359C90.4558 51.6782 90.4063 51.6923 90.3569 51.6923H89.8909C89.8273 51.6923 89.7708 51.6712 89.7285 51.6359C89.6861 51.6007 89.6578 51.5654 89.6437 51.5231L89.0929 50.099H85.8235L85.2798 51.5231C85.2233 51.6359 85.1456 51.6923 85.0327 51.6923H84.5596C84.5101 51.6923 84.4607 51.6712 84.4183 51.6359H84.4042ZM86.0919 49.2882H88.8034L87.4476 45.7419L86.0919 49.2882Z" fill="#929495"/>
<path d="M93.2026 51.6359C93.1602 51.5936 93.139 51.5372 93.139 51.4737V45.6432H91.2325C91.1689 45.6432 91.1124 45.6221 91.0701 45.5798C91.0277 45.5374 91.0065 45.481 91.0065 45.4176V45.0298C91.0065 44.9593 91.0277 44.9029 91.0701 44.8536C91.1124 44.8113 91.1689 44.7901 91.2325 44.7901H95.9777C96.0483 44.7901 96.1048 44.8113 96.1472 44.8536C96.1896 44.8959 96.2037 44.9523 96.2037 45.0298V45.4176C96.2037 45.481 96.1825 45.5374 96.1401 45.5798C96.0978 45.6221 96.0413 45.6432 95.9777 45.6432H94.0782V51.4737C94.0782 51.5372 94.057 51.5936 94.0076 51.6359C93.9582 51.6782 93.9017 51.6994 93.8381 51.6994H93.365C93.3015 51.6994 93.245 51.6782 93.2026 51.6359Z" fill="#929495"/>
<path d="M96.7333 51.6359C96.6909 51.5936 96.6768 51.5513 96.6768 51.4949L96.698 51.3891L99.1483 45.0016C99.1977 44.8536 99.3036 44.7831 99.466 44.7831H100.102C100.257 44.7831 100.363 44.8536 100.419 45.0016L102.87 51.3891L102.891 51.4949C102.891 51.5443 102.87 51.5936 102.827 51.6359C102.785 51.6782 102.735 51.6923 102.686 51.6923H102.22C102.156 51.6923 102.1 51.6712 102.058 51.6359C102.015 51.6007 101.987 51.5654 101.973 51.5231L101.422 50.099H98.1526L97.6089 51.5231C97.5524 51.6359 97.4748 51.6923 97.3618 51.6923H96.8887C96.8392 51.6923 96.7898 51.6712 96.7474 51.6359H96.7333ZM98.421 49.2882H101.133L99.7767 45.7419L98.421 49.2882Z" fill="#929495"/>
<path d="M104.748 51.6359C104.706 51.5936 104.691 51.5372 104.691 51.4737V45.0298C104.691 44.9593 104.713 44.9029 104.748 44.8536C104.79 44.8113 104.84 44.7901 104.903 44.7901H107.318C108.067 44.7901 108.66 44.9664 109.084 45.3189C109.507 45.6714 109.719 46.179 109.719 46.8558C109.719 47.3564 109.592 47.7653 109.345 48.0896C109.091 48.4139 108.745 48.6325 108.3 48.7594L109.825 51.3962C109.846 51.4385 109.853 51.4737 109.853 51.502C109.853 51.5513 109.832 51.6007 109.797 51.643C109.761 51.6853 109.712 51.6994 109.656 51.6994H109.218C109.119 51.6994 109.041 51.6782 108.985 51.6289C108.928 51.5866 108.879 51.516 108.829 51.4314L107.375 48.9075H105.616V51.4737C105.616 51.5372 105.595 51.5936 105.546 51.6359C105.496 51.6782 105.447 51.6994 105.376 51.6994H104.903C104.84 51.6994 104.783 51.6782 104.748 51.6359ZM107.276 48.0967C108.272 48.0967 108.766 47.6807 108.766 46.8417C108.766 46.0028 108.272 45.5868 107.276 45.5868H105.616V48.0967H107.276Z" fill="#929495"/>
<path d="M123.418 51.6359C123.376 51.5936 123.362 51.5372 123.362 51.4737V45.0298C123.362 44.9593 123.383 44.9029 123.418 44.8536C123.46 44.8113 123.51 44.7901 123.573 44.7901H124.039C124.11 44.7901 124.167 44.8113 124.216 44.8536C124.258 44.8959 124.28 44.9523 124.28 45.0298V47.4904L126.956 44.9523C127.062 44.8465 127.189 44.7972 127.344 44.7972H127.838C127.888 44.7972 127.937 44.8183 127.98 44.8536C128.022 44.8959 128.036 44.9382 128.036 44.9946C128.036 45.051 128.022 45.0933 127.987 45.1215L124.901 48.1037L128.192 51.368C128.227 51.4103 128.241 51.4526 128.241 51.509C128.241 51.5654 128.22 51.6077 128.185 51.65C128.142 51.6923 128.1 51.7064 128.043 51.7064H127.528C127.436 51.7064 127.365 51.6923 127.309 51.6641C127.252 51.6359 127.203 51.5936 127.139 51.5513L124.273 48.7594V51.4808C124.273 51.5442 124.251 51.6007 124.202 51.643C124.152 51.6853 124.103 51.7064 124.032 51.7064H123.566C123.503 51.7064 123.446 51.6853 123.411 51.643L123.418 51.6359Z" fill="#929495"/>
<path d="M130.67 51.5372C130.268 51.368 129.971 51.1424 129.759 50.8604C129.554 50.5784 129.441 50.2823 129.427 49.9579C129.427 49.9086 129.448 49.8592 129.484 49.8169C129.526 49.7746 129.576 49.7605 129.632 49.7605H130.119C130.239 49.7605 130.317 49.824 130.366 49.9579C130.423 50.2329 130.592 50.4726 130.875 50.67C131.157 50.8745 131.553 50.9732 132.075 50.9732C132.633 50.9732 133.057 50.8745 133.332 50.6771C133.608 50.4797 133.749 50.2047 133.749 49.8592C133.749 49.6336 133.678 49.4503 133.544 49.3093C133.41 49.1613 133.205 49.0414 132.944 48.9286C132.676 48.8229 132.273 48.6889 131.743 48.5268C131.235 48.3787 130.833 48.2306 130.536 48.0614C130.239 47.8922 130.013 47.6948 129.858 47.4551C129.71 47.2154 129.632 46.9122 129.632 46.5456C129.632 46.179 129.731 45.8759 129.922 45.5939C130.112 45.3118 130.388 45.0933 130.755 44.9311C131.115 44.769 131.546 44.6914 132.04 44.6914C132.534 44.6914 132.993 44.7831 133.36 44.9593C133.728 45.1426 134.003 45.3682 134.194 45.6432C134.384 45.9182 134.49 46.1931 134.497 46.4681C134.497 46.5245 134.476 46.5738 134.441 46.6161C134.398 46.6584 134.349 46.6725 134.293 46.6725H133.798C133.742 46.6725 133.692 46.6584 133.65 46.6232C133.601 46.5879 133.572 46.5386 133.551 46.4751C133.509 46.1931 133.353 45.9605 133.078 45.7772C132.803 45.5939 132.457 45.5022 132.04 45.5022C131.595 45.5022 131.235 45.5868 130.974 45.7631C130.712 45.9393 130.578 46.1931 130.578 46.5386C130.578 46.7712 130.642 46.9545 130.762 47.1026C130.882 47.2507 131.073 47.3776 131.327 47.4904C131.581 47.6032 131.948 47.7301 132.442 47.8781C133 48.0332 133.445 48.1954 133.763 48.3505C134.081 48.5056 134.321 48.703 134.476 48.9357C134.632 49.1683 134.716 49.4715 134.716 49.8381C134.716 50.4585 134.483 50.9379 134.01 51.2834C133.537 51.6289 132.901 51.8051 132.096 51.8051C131.56 51.8051 131.087 51.7205 130.691 51.5513L130.67 51.5372Z" fill="#929495"/>
<path d="M136.03 51.6359C135.987 51.5936 135.973 51.5513 135.973 51.4949L135.994 51.3891L138.445 45.0016C138.494 44.8536 138.6 44.7831 138.762 44.7831H139.398C139.553 44.7831 139.659 44.8536 139.716 45.0016L142.166 51.3891L142.187 51.4949C142.187 51.5443 142.166 51.5936 142.124 51.6359C142.081 51.6782 142.032 51.6923 141.982 51.6923H141.516C141.453 51.6923 141.396 51.6712 141.354 51.6359C141.312 51.6007 141.283 51.5654 141.269 51.5231L140.718 50.099H137.449L136.905 51.5231C136.849 51.6359 136.771 51.6923 136.658 51.6923H136.185C136.136 51.6923 136.086 51.6712 136.044 51.6359H136.03ZM137.717 49.2882H140.429L139.073 45.7419L137.717 49.2882Z" fill="#929495"/>
</g>
<defs>
<clipPath id="clip0_711_795">
<rect width="143.437" height="56" fill="white"/>
</clipPath>
</defs>
</svg>
